<svg width="35" height="35" viewBox="0 0 35 35" fill="none" xmlns="http://www.w3.org/2000/svg">
<path d="M29.1666 4.375H10.2083C8.59975 4.375 7.29163 5.68313 7.29163 7.29167V10.2083H5.83329C4.22475 10.2083 2.91663 11.5165 2.91663 13.125V27.7083C2.91663 29.3169 4.22475 30.625 5.83329 30.625H14.5833C16.1918 30.625 17.5 29.3169 17.5 27.7083H29.1666C30.7752 27.7083 32.0833 26.4002 32.0833 24.7917V7.29167C32.0833 5.68313 30.7752 4.375 29.1666 4.375ZM14.5789 27.7083H5.83329V13.125H14.5833L14.5789 27.7083ZM29.1623 24.7917H17.5V13.125C17.5 11.5165 16.1918 10.2083 14.5833 10.2083H10.2083V7.29167H29.1666L29.1623 24.7917Z" fill="#E52E31"/>
</svg>
