<svg width="108" height="26" viewBox="0 0 108 26" fill="none" xmlns="http://www.w3.org/2000/svg">
<path fill-rule="evenodd" clip-rule="evenodd" d="M64.3976 7.62455C63.883 7.85742 63.5616 8.37974 63.5857 8.94408L63.6026 8.95251C63.607 9.30901 63.754 9.64889 64.0108 9.89619C64.2677 10.1435 64.6128 10.2776 64.9692 10.2685C65.5341 10.268 66.0419 9.9242 66.2521 9.39992C66.4623 8.87565 66.3327 8.27623 65.9247 7.88563C65.5167 7.49502 64.9122 7.39168 64.3976 7.62455ZM34.0339 8.25235H31.3259V19.2193H34.0339V8.25235ZM39.3318 10.7496C36.801 10.7496 35.1137 12.3778 35.1137 15.0942C35.1137 17.8697 36.7419 19.4557 39.3318 19.4557C41.9217 19.4557 43.5499 17.8106 43.5499 15.0942C43.5499 12.3778 41.8626 10.7496 39.3318 10.7496ZM40.8672 15.094C40.8672 13.6008 40.2851 12.7235 39.3572 12.7235C38.4292 12.7235 37.8555 13.5671 37.8555 15.094C37.8555 16.621 38.4292 17.4562 39.3572 17.4562C40.2851 17.4562 40.8841 16.621 40.8841 15.1025L40.8672 15.094ZM47.2449 19.7846H44.6297L44.6466 19.7931C44.7984 21.3031 46.3001 22.3745 48.6453 22.383C51.2268 22.383 52.9815 21.1428 52.9815 19.1604V10.9436H50.2988V12.3041C49.8407 11.3871 48.8789 10.8207 47.8439 10.8761C45.7264 10.8761 44.4694 12.4958 44.4694 15.0941C44.4694 17.6925 45.7855 19.2025 47.768 19.2025C48.8291 19.2803 49.8291 18.7012 50.2904 17.7439V19.2447C50.2904 20.0715 49.7504 20.6282 48.7128 20.6282C48.0897 20.7081 47.4896 20.3633 47.2449 19.7846ZM50.2988 15.094C50.2988 13.7696 49.6914 12.9344 48.7297 12.9344C47.768 12.9344 47.1775 13.778 47.1775 15.094C47.1775 16.4101 47.7596 17.1862 48.7297 17.1862C49.6999 17.1862 50.2988 16.4691 50.2988 15.094ZM58.2709 10.7496C55.7401 10.7496 54.0529 12.3778 54.0529 15.0942H54.0697C54.0697 17.8697 55.6895 19.4557 58.2709 19.4557C60.8524 19.4557 62.489 17.8106 62.489 15.0942C62.489 12.3778 60.8018 10.7496 58.2709 10.7496ZM59.8063 15.094C59.8063 13.6008 59.2158 12.7235 58.2962 12.7235C57.3767 12.7235 56.7946 13.5671 56.7946 15.094C56.7946 16.621 57.3683 17.4562 58.2962 17.4562C59.2242 17.4562 59.8232 16.621 59.8232 15.1025L59.8063 15.094ZM63.5857 10.9351H66.3275V19.2531H63.6279L63.5857 10.9351ZM72.9076 19.3715C74.9745 19.3715 76.1893 17.8024 76.1893 15.0944L76.2399 15.1028C76.2399 12.3864 75.0167 10.8257 72.8908 10.8426C71.7937 10.7904 70.7817 11.4313 70.3599 12.4454H70.3093V10.9607H67.6182V21.9276H70.3262V17.8277H70.3768C70.8134 18.822 71.8238 19.4383 72.9076 19.3715ZM73.4306 15.0942C73.4306 13.7781 72.8148 12.9261 71.8615 12.9261C70.9082 12.9261 70.3093 13.7697 70.3008 15.0942C70.2924 16.4187 70.9082 17.2538 71.8615 17.2538C72.8148 17.2538 73.4812 16.4693 73.4812 15.1026L73.4306 15.0942ZM84.5073 13.5336C84.4904 11.8127 83.0816 10.7413 80.8123 10.7413L80.8629 10.7497C78.5767 10.7497 77.1595 11.8042 77.1088 13.4577C77.1088 14.7316 77.9609 15.5836 79.5891 15.9295L81.1582 16.2585C81.8078 16.3935 82.0608 16.4694 82.0608 16.9165C82.0608 17.3637 81.6897 17.6167 80.8967 17.6167C80.1037 17.6167 79.6144 17.254 79.5384 16.6381H76.9148C77.0245 18.3338 78.5345 19.4474 80.8545 19.4474C83.1744 19.4474 84.7351 18.3001 84.7351 16.6128C84.7351 15.3559 84.0602 14.681 82.373 14.3266L80.6351 13.9723C80.0109 13.8458 79.6987 13.7108 79.6987 13.2806C79.6987 12.8503 80.053 12.5635 80.7954 12.5635C81.5378 12.5635 82.0355 12.9347 82.0355 13.5336H84.5073ZM93.8039 19.2446H91.1802V17.6839H91.1296C90.8271 18.7562 89.8209 19.4749 88.7085 19.4133C87.8837 19.4402 87.0868 19.1136 86.518 18.5158C85.9492 17.918 85.6627 17.1059 85.7305 16.2835V10.9434H88.4385V15.7014C88.4385 16.68 88.9531 17.2115 89.7967 17.2115C90.1972 17.2085 90.5767 17.0321 90.8372 16.7279C91.0976 16.4237 91.2136 16.0216 91.1549 15.6255V10.9434H93.8545L93.8039 19.2446ZM97.7435 10.9346H95.1115L95.1283 19.2526H97.8363V14.3428C97.7925 13.9975 97.9 13.65 98.1311 13.3898C98.3623 13.1295 98.6946 12.9818 99.0427 12.9846C99.7851 12.9846 100.198 13.4317 100.198 14.2753V19.2526H102.78V14.3259C102.733 13.9845 102.838 13.6397 103.066 13.3818C103.295 13.124 103.625 12.9789 103.969 12.9846C104.737 12.9846 105.134 13.457 105.134 14.3006V19.2526H107.858V13.6088C107.914 12.8614 107.649 12.1256 107.128 11.586C106.608 11.0464 105.883 10.7542 105.134 10.7827C103.988 10.7291 102.949 11.4526 102.603 12.5459H102.485C102.284 11.4499 101.283 10.6862 100.173 10.7827C99.0758 10.7604 98.1017 11.4814 97.8026 12.5374H97.7435V10.9346Z" fill="white"/>
<path fill-rule="evenodd" clip-rule="evenodd" d="M25.969 8.9699C25.9692 5.53336 23.8602 2.449 20.6577 1.20236C17.4553 -0.0442849 13.816 0.802379 11.4926 3.33457H0.964355V25.5553H23.1936V15.1705C24.9581 13.5922 25.9674 11.3373 25.969 8.9699ZM21.6919 8.96974C21.6953 10.6151 20.7067 12.1004 19.1876 12.7324C17.6684 13.3645 15.9181 13.0187 14.7534 11.8564C13.5887 10.6941 13.2393 8.94453 13.8682 7.42406C14.497 5.90358 15.9803 4.91197 17.6257 4.91196C19.8681 4.91196 21.6872 6.72733 21.6919 8.96974ZM5.24147 21.2783H18.9164V17.2037C18.4898 17.2744 18.0582 17.3111 17.6257 17.3134C13.0197 17.3087 9.28703 13.576 9.28238 8.97003C9.28608 8.51453 9.32842 8.06016 9.40892 7.61182H5.24147V21.2783Z" fill="white"/>
</svg>
