<svg width="86" height="41" viewBox="0 0 86 41" fill="none" xmlns="http://www.w3.org/2000/svg">
<path d="M0.661133 24.1353H3.19197V36.5448H0.661133V24.1353Z" fill="white"/>
<path fill-rule="evenodd" clip-rule="evenodd" d="M7.43496 28.1253C5.75187 28.8252 4.65646 30.4704 4.65987 32.2932C4.64845 33.4907 5.11968 34.6423 5.96725 35.4883C6.81482 36.3343 7.96732 36.8034 9.16476 36.7897C10.9876 36.7897 12.6308 35.6912 13.3275 34.0068C14.0243 32.3224 13.6373 30.3841 12.3472 29.0964C11.0571 27.8087 9.11805 27.4253 7.43496 28.1253ZM9.13185 30.3871C10.2059 30.3687 11.0941 31.2195 11.1219 32.2934C11.1504 32.8252 10.9551 33.3448 10.5833 33.7262C10.2115 34.1076 9.69714 34.3161 9.16472 34.3012C8.09047 34.3008 7.21728 33.4346 7.20826 32.3604C7.19924 31.2862 8.05775 30.4055 9.13185 30.3871Z" fill="white"/>
<path fill-rule="evenodd" clip-rule="evenodd" d="M23.8436 36.1239V28.0421L21.3549 28.0674V28.911C20.7489 28.1719 19.8295 27.7623 18.8747 27.8059C16.4892 27.8059 14.5554 29.7397 14.5554 32.1252C14.5554 34.5107 16.4892 36.4445 18.8747 36.4445C19.8303 36.4922 20.7514 36.0818 21.3549 35.3394V36.1239C21.404 36.6453 21.2081 37.1599 20.8248 37.5167C20.4416 37.8736 19.9143 38.0322 19.3978 37.9461C18.6053 38.0117 17.853 37.5871 17.4996 36.8747L15.3231 38.1317C16.1739 39.5165 17.7264 40.3107 19.3471 40.1901C21.608 40.1901 23.8436 38.9838 23.8436 36.1239ZM20.1445 30.1646C20.9103 30.5099 21.3894 31.286 21.3549 32.1254C21.3706 32.6685 21.1558 33.1929 20.7636 33.569C20.3715 33.9451 19.8385 34.1378 19.2965 34.0994C18.4564 34.0987 17.7011 33.5876 17.3881 32.808C17.075 32.0284 17.2672 31.1368 17.8735 30.5554C18.4798 29.9739 19.3786 29.8192 20.1445 30.1646Z" fill="white"/>
<path fill-rule="evenodd" clip-rule="evenodd" d="M28.0783 28.1253C26.3952 28.8252 25.2998 30.4704 25.3032 32.2932C25.2918 33.4907 25.763 34.6423 26.6106 35.4883C27.4581 36.3343 28.6106 36.8034 29.8081 36.7897C31.6309 36.7897 33.2741 35.6912 33.9709 34.0068C34.6676 32.3224 34.2807 30.3841 32.9905 29.0964C31.7004 27.8087 29.7614 27.4253 28.0783 28.1253ZM29.7752 30.3871C30.8493 30.3687 31.7375 31.2195 31.7653 32.2934H31.7484C31.7766 32.8222 31.5836 33.339 31.2156 33.7199C30.8475 34.1007 30.3376 34.3113 29.8081 34.3012C28.7339 34.3008 27.8607 33.4346 27.8517 32.3604C27.8426 31.2862 28.7011 30.4055 29.7752 30.3871Z" fill="white"/>
<path fill-rule="evenodd" clip-rule="evenodd" d="M37.021 24.2285C36.173 24.2285 35.4856 24.9159 35.4856 25.7639C35.4902 26.6099 36.1749 27.2947 37.021 27.2993C37.8689 27.2993 38.5563 26.6119 38.5563 25.7639C38.5563 24.9159 37.8689 24.2285 37.021 24.2285ZM38.2779 28.0415H35.7471V36.5452H38.2779V28.0415Z" fill="white"/>
<path fill-rule="evenodd" clip-rule="evenodd" d="M48.219 35.3865C48.9808 34.5424 49.3743 33.4293 49.3123 32.294C49.372 31.1601 48.9774 30.0492 48.2159 29.2069C47.4544 28.3646 46.3887 27.8605 45.2545 27.806C44.2989 27.7601 43.3721 28.1401 42.7237 28.8436V28.0422H40.1929V39.9709H42.7237V35.7528C43.3721 36.4563 44.2989 36.8363 45.2545 36.7904C46.3902 36.736 47.4573 36.2306 48.219 35.3865ZM44.7403 30.3208C45.8452 30.3115 46.7535 31.1896 46.7814 32.2941H46.7646C46.8047 32.8529 46.6013 33.4017 46.2068 33.7994C45.8123 34.1971 45.2652 34.405 44.7062 34.3694C43.6016 34.3414 42.7235 33.4331 42.7328 32.3283C42.7422 31.2235 43.6355 30.3301 44.7403 30.3208Z" fill="white"/>
<path d="M57.1916 33.9974C57.1916 35.9546 55.5044 36.7898 53.6484 36.7898C52.1316 36.9241 50.6856 36.1226 49.9956 34.7651L52.2059 33.5081C52.3908 34.1404 52.9913 34.5583 53.6484 34.512C54.2643 34.512 54.568 34.318 54.568 33.9806C54.568 33.0441 50.3499 33.5419 50.3499 30.6061C50.3499 28.7502 51.919 27.8137 53.7244 27.8137C55.081 27.7725 56.3534 28.47 57.0482 29.6359L54.8295 30.8001C54.6293 30.3449 54.1795 30.0506 53.6822 30.0493C53.2435 30.0493 52.9736 30.218 52.9736 30.5302C53.0073 31.5003 57.1916 30.8507 57.1916 33.9974Z" fill="white"/>
<path d="M66.5051 28.0415V36.5451H63.9743V35.7521C63.3771 36.4668 62.4739 36.8526 61.5447 36.7898C59.8575 36.7898 58.3643 35.5665 58.3643 33.2635V28.0415H60.8951V32.8923C60.85 33.3109 60.9957 33.7276 61.2918 34.0269C61.5879 34.3263 62.0029 34.4766 62.422 34.4361C63.35 34.4361 63.9996 33.8962 63.9996 32.6898V28.0415H66.5051Z" fill="white"/>
<path d="M81.1334 31.3315V36.545H78.6025V31.5508C78.6025 30.7072 78.1892 30.1504 77.3793 30.1504C76.5694 30.1504 76.0464 30.7494 76.0464 31.7533V36.545H73.5156V31.5508C73.5156 30.7072 73.1106 30.1504 72.2923 30.1504C71.474 30.1504 70.9678 30.7494 70.9678 31.7533V36.545H68.437V28.0414H70.9678V28.826C71.5053 28.1219 72.3625 27.7378 73.2456 27.8052C74.1335 27.7621 74.9789 28.188 75.4727 28.9272C76.0466 28.1549 76.9768 27.7312 77.9361 27.8052C79.8595 27.8052 81.1334 29.2056 81.1334 31.3315Z" fill="white"/>
<path d="M83.293 27.9908C84.3367 27.9908 85.1827 27.1448 85.1827 26.1011C85.1827 25.0575 84.3367 24.2114 83.293 24.2114C82.2494 24.2114 81.4033 25.0575 81.4033 26.1011C81.4033 27.1448 82.2494 27.9908 83.293 27.9908Z" fill="white"/>
<path d="M29.3019 17.699C34.1893 17.699 38.1514 13.7369 38.1514 8.8495C38.1514 3.96205 34.1893 0 29.3019 0C24.4144 0 20.4524 3.96205 20.4524 8.8495C20.4524 13.7369 24.4144 17.699 29.3019 17.699Z" fill="white"/>
<path d="M49.0846 17.699C53.972 17.699 57.9341 13.7369 57.9341 8.8495C57.9341 3.96205 53.972 0 49.0846 0C44.1972 0 40.2351 3.96205 40.2351 8.8495C40.2351 13.7369 44.1972 17.699 49.0846 17.699Z" fill="white"/>
<rect x="0.677979" width="17.6906" height="17.6906" fill="white"/>
</svg>
