<svg width="100" height="21" viewBox="0 0 100 21" fill="none" xmlns="http://www.w3.org/2000/svg">
<path d="M32.5455 16.3296C32.0437 16.3568 31.5474 16.2141 31.1367 15.9247C30.7882 15.6664 30.5894 15.253 30.6052 14.8195V6.99924C30.5969 6.93215 30.62 6.86498 30.6678 6.81717C30.7156 6.76937 30.7827 6.74628 30.8498 6.7546H32.2671C32.4274 6.7546 32.5033 6.83896 32.5033 6.99924V14.2121C32.5033 14.5327 32.6467 14.693 32.942 14.693C33.0672 14.6982 33.1924 14.6839 33.3132 14.6508C33.4819 14.6508 33.5747 14.7014 33.5831 14.8533L33.7097 15.9078C33.722 15.97 33.7068 16.0345 33.6679 16.0846C33.6291 16.1348 33.5705 16.1656 33.5072 16.1693C33.1968 16.2719 32.8724 16.3259 32.5455 16.3296Z" fill="white"/>
<path fill-rule="evenodd" clip-rule="evenodd" d="M35.4558 15.4268C36.9248 16.6405 39.0486 16.6405 40.5175 15.4268V15.4184C41.7881 14.0934 41.7881 12.0023 40.5175 10.6773C39.0462 9.47021 36.9272 9.47021 35.4558 10.6773C34.1531 11.9924 34.1531 14.1116 35.4558 15.4268ZM39.2015 14.3133C38.5168 14.9335 37.4734 14.9335 36.7888 14.3133C36.1703 13.6022 36.1703 12.5442 36.7888 11.8331C37.4734 11.2129 38.5168 11.2129 39.2015 11.8331C39.82 12.5442 39.82 13.6022 39.2015 14.3133Z" fill="white"/>
<path fill-rule="evenodd" clip-rule="evenodd" d="M49.5106 10.2298C49.5106 10.0696 49.4347 9.98519 49.2744 9.98519L47.874 9.99363C47.8083 9.98809 47.7436 10.0124 47.6978 10.0598C47.652 10.1073 47.6299 10.1728 47.6378 10.2383V10.3733C47.123 9.9795 46.4888 9.77405 45.8409 9.79116C44.9521 9.75946 44.0882 10.088 43.445 10.7023C42.1808 12.0102 42.1808 14.0848 43.445 15.3928C44.0852 16.0126 44.9504 16.3447 45.8409 16.3123C46.4705 16.3302 47.0881 16.1372 47.5956 15.7639V16.2954C47.6128 16.6863 47.4696 17.0672 47.1991 17.3499C46.9031 17.6201 46.511 17.7599 46.1108 17.738C45.7825 17.7446 45.4578 17.6692 45.166 17.5187C44.9265 17.3892 44.7433 17.1759 44.6514 16.9197C44.6049 16.8058 44.4959 16.7298 44.373 16.7257H42.9557C42.7279 16.7257 42.7279 16.8016 42.7279 16.9703C42.8466 17.6615 43.2468 18.2725 43.8331 18.6575C44.5123 19.0978 45.3104 19.3187 46.1193 19.2902C47.0148 19.3297 47.8921 19.0283 48.5742 18.4466C49.1965 17.9016 49.5404 17.1053 49.5106 16.2785V10.2298ZM47.1569 14.3127C46.8645 14.6418 46.4412 14.8241 46.0012 14.8105C45.5565 14.8233 45.1283 14.6416 44.8286 14.3127C44.526 13.9653 44.3662 13.5162 44.3815 13.0557C44.3629 12.5907 44.5263 12.1368 44.837 11.7903C45.136 11.4606 45.5647 11.2786 46.0096 11.2926C46.4456 11.2782 46.8656 11.4573 47.1569 11.7819C47.7338 12.5269 47.7338 13.5677 47.1569 14.3127Z" fill="white"/>
<path fill-rule="evenodd" clip-rule="evenodd" d="M51.7291 15.4268C53.2004 16.6338 55.3194 16.6338 56.7908 15.4268V15.4183C58.0613 14.0933 58.0613 12.0022 56.7908 10.6772C55.3182 9.47348 53.2016 9.47348 51.7291 10.6772C50.4575 12.0051 50.4575 14.0989 51.7291 15.4268ZM54.2683 14.777C53.8176 14.7909 53.3802 14.6238 53.0535 14.313C52.4458 13.598 52.4458 12.5479 53.0535 11.8328C53.3802 11.522 53.8176 11.355 54.2683 11.3688C54.7161 11.3572 55.1501 11.5241 55.4747 11.8328C56.0824 12.5479 56.0824 13.598 55.4747 14.313C55.1501 14.6217 54.7161 14.7886 54.2683 14.777Z" fill="white"/>
<path fill-rule="evenodd" clip-rule="evenodd" d="M59.1783 8.55193C59.6396 8.95564 60.3284 8.95564 60.7896 8.55193C60.994 8.35908 61.1098 8.09053 61.1098 7.80955C61.1098 7.52858 60.994 7.26002 60.7896 7.06717C60.3244 6.67422 59.6435 6.67422 59.1783 7.06717C58.974 7.26002 58.8582 7.52858 58.8582 7.80955C58.8582 8.09053 58.974 8.35908 59.1783 8.55193ZM59.5579 15.9253C59.9698 16.2124 60.4653 16.3548 60.9668 16.3302C61.2965 16.3271 61.6237 16.2731 61.9369 16.1699C62.0002 16.1663 62.0589 16.1354 62.0977 16.0852C62.1365 16.0351 62.1517 15.9706 62.1394 15.9084L62.0129 14.8539C62.0044 14.7021 61.9116 14.6514 61.7429 14.6514C61.6191 14.684 61.4912 14.6982 61.3633 14.6936C61.0765 14.6936 60.933 14.5333 60.933 14.2128V10.2309C60.933 10.0706 60.8571 9.98626 60.6968 9.98626H59.2796C59.2125 9.97795 59.1453 10.001 59.0975 10.0488C59.0497 10.0966 59.0266 10.1638 59.0349 10.2309V14.8202C59.0201 15.2515 59.215 15.6633 59.5579 15.9253Z" fill="white"/>
<path fill-rule="evenodd" clip-rule="evenodd" d="M69.7657 10.6941C69.1179 10.0763 68.2474 9.74762 67.353 9.78296C66.572 9.76595 65.8184 10.071 65.2692 10.6266C64.9796 10.0606 64.3756 9.7269 63.7423 9.78296C63.4318 9.77726 63.123 9.82874 62.8312 9.93481C62.709 9.97028 62.6281 10.0863 62.6372 10.2132V11.2087C62.6372 11.3436 62.73 11.4111 62.9156 11.4111H63.1939C63.3311 11.391 63.4698 11.4369 63.5678 11.535C63.6659 11.633 63.7118 11.7717 63.6917 11.9089V18.8265C63.6794 18.8921 63.7003 18.9596 63.7475 19.0068C63.7948 19.0541 63.8622 19.075 63.9279 19.0627H65.3452C65.5054 19.0627 65.5898 18.9868 65.5898 18.8265V15.781C66.1021 16.1509 66.7212 16.3434 67.353 16.3294C68.2491 16.3654 69.1209 16.0332 69.7657 15.4099C71.0034 14.0816 71.0034 12.0224 69.7657 10.6941ZM67.2011 14.8104C66.7615 14.8104 66.3409 14.6307 66.0369 14.3131C65.7322 13.9536 65.5727 13.4933 65.5898 13.0224C65.5702 12.551 65.73 12.0898 66.0369 11.7316C66.3409 11.414 66.7615 11.2343 67.2011 11.2343C67.6408 11.2343 68.0613 11.414 68.3653 11.7316C68.6845 12.0836 68.8514 12.5477 68.8293 13.0224C68.8486 13.4966 68.6822 13.9597 68.3653 14.3131C68.0613 14.6307 67.6408 14.8104 67.2011 14.8104Z" fill="white"/>
<path d="M74.6755 16.3297C73.9182 16.3608 73.1672 16.1796 72.5074 15.8066C71.9711 15.4836 71.611 14.9341 71.5288 14.3134C71.5288 14.1447 71.5879 14.0603 71.7735 14.0603H73.0136C73.1338 14.065 73.2414 14.1367 73.292 14.2459C73.4691 14.7015 73.9331 14.9293 74.6755 14.9293C74.9344 14.9411 75.1923 14.8889 75.4263 14.7774C75.5909 14.7031 75.7011 14.5442 75.7131 14.364C75.7131 14.1447 75.5781 13.9929 75.3082 13.8916C74.988 13.785 74.657 13.7143 74.3212 13.6807C73.9234 13.6357 73.5289 13.5652 73.1401 13.4698C72.762 13.3842 72.4182 13.1874 72.1531 12.9046C71.8374 12.5161 71.6973 12.014 71.766 11.5181C71.8348 11.0223 72.1064 10.5773 72.5158 10.2894C73.1239 9.90205 73.8373 9.71336 74.5574 9.74948C75.2545 9.72591 75.9443 9.89835 76.5483 10.2472C77.0413 10.5264 77.3822 11.013 77.4763 11.5717C77.4763 11.7404 77.4004 11.8248 77.2485 11.8248H76C75.8924 11.8311 75.7919 11.7709 75.7469 11.6729C75.6634 11.4731 75.5064 11.313 75.3082 11.2258C75.0846 11.1088 74.8349 11.0508 74.5827 11.0571C74.3354 11.0436 74.0887 11.093 73.8656 11.2005C73.7048 11.2625 73.5979 11.4162 73.5957 11.5886C73.6067 11.8254 73.771 12.0273 74.0006 12.0863C74.3246 12.2084 74.6614 12.2933 75.0045 12.3394C75.399 12.3913 75.7905 12.4645 76.1771 12.5587C76.5552 12.6443 76.899 12.8412 77.1641 13.1239C77.4506 13.4386 77.5995 13.8547 77.5775 14.2797C77.5923 14.8729 77.2944 15.4303 76.793 15.7476C76.1626 16.1522 75.424 16.3552 74.6755 16.3297Z" fill="white"/>
<path d="M86.4944 15.9075C86.5041 15.968 86.4889 16.0299 86.4524 16.0791C86.4159 16.1283 86.3611 16.1607 86.3004 16.169C85.9924 16.2696 85.6711 16.3236 85.3471 16.3293C84.695 16.3968 84.0551 16.1185 83.6599 15.5954C83.064 16.1077 82.2935 16.3706 81.5087 16.3293C80.7718 16.3633 80.0549 16.0845 79.5346 15.5616C79.0183 15.0142 78.7472 14.2801 78.7838 13.5285V10.23C78.7838 10.0697 78.8597 9.98535 79.02 9.98535H80.4373C80.5976 9.98535 80.6735 10.0697 80.6735 10.23V13.2754C80.6581 13.6549 80.7878 14.0259 81.0362 14.3131C81.2871 14.5793 81.6409 14.7238 82.0064 14.7096C82.3799 14.7259 82.7444 14.5923 83.0187 14.3384C83.2786 14.0706 83.416 13.7072 83.3984 13.3345V10.23C83.3984 10.0697 83.4743 9.98535 83.6346 9.98535H85.0687C85.229 9.98535 85.3049 10.0697 85.3049 10.23V14.2034C85.3049 14.5324 85.4483 14.6927 85.7267 14.6927C85.8575 14.6978 85.9882 14.6836 86.1148 14.6505C86.1794 14.6324 86.2488 14.6449 86.303 14.6843C86.3573 14.7238 86.3905 14.7859 86.3932 14.853L86.4944 15.9075Z" fill="white"/>
<path d="M99.8995 15.9073C99.9147 15.9684 99.9017 16.0332 99.8642 16.0838C99.8266 16.1344 99.7684 16.1656 99.7054 16.1688C99.392 16.2708 99.0649 16.3248 98.7353 16.3291C98.2337 16.3549 97.7378 16.2124 97.3265 15.9241C96.9652 15.6733 96.7532 15.2587 96.7612 14.819V12.8365C96.779 12.4582 96.6523 12.0873 96.4069 11.7989C96.1672 11.5319 95.8205 11.3864 95.4621 11.4024C95.1388 11.3902 94.8278 11.527 94.6185 11.7736C94.3958 12.0562 94.282 12.4095 94.2979 12.769V15.8819C94.2979 16.0422 94.222 16.1266 94.0617 16.1266H92.636C92.5689 16.1349 92.5017 16.1118 92.4539 16.064C92.4061 16.0162 92.383 15.949 92.3913 15.8819V12.8365C92.4097 12.4623 92.293 12.094 92.0623 11.7989C91.8541 11.5478 91.5449 11.4025 91.2187 11.4024C90.8706 11.3883 90.5331 11.5233 90.2907 11.7736C90.0494 12.0472 89.9252 12.4047 89.9448 12.769V15.8819C89.9532 15.949 89.9301 16.0162 89.8823 16.064C89.8345 16.1118 89.7673 16.1349 89.7002 16.1266H88.3251C88.1648 16.1266 88.0889 16.0422 88.0889 15.8819V11.9085C88.109 11.7713 88.0631 11.6327 87.9651 11.5346C87.867 11.4366 87.7284 11.3907 87.5912 11.4108H87.3128C87.1272 11.4108 87.0344 11.3433 87.0344 11.2083V10.2129C87.0254 10.0859 87.1062 9.96995 87.2284 9.93448C87.5202 9.8284 87.8291 9.77693 88.1395 9.78263C88.7477 9.73082 89.3317 10.0326 89.6411 10.5588C90.2165 10.0134 90.9928 9.73224 91.7839 9.78263C92.5548 9.74499 93.2974 10.0771 93.7833 10.6769C94.3486 10.0624 95.16 9.73416 95.9935 9.78263C96.738 9.74779 97.4631 10.0262 97.9929 10.5503C98.5109 11.0967 98.7823 11.8315 98.7437 12.5834V14.2116C98.7437 14.5322 98.8871 14.6925 99.1571 14.6925C99.2878 14.6985 99.4188 14.6843 99.5452 14.6503C99.7195 14.6503 99.8123 14.7178 99.8235 14.8527L99.8995 15.9073Z" fill="white"/>
<path fill-rule="evenodd" clip-rule="evenodd" d="M0.977438 8.88861C2.25811 3.74117 6.88047 0.12793 12.1848 0.12793C17.4892 0.12793 22.1116 3.74117 23.3922 8.88861H22.3799C20.6722 8.86346 18.9994 9.37384 17.5966 10.3481C17.5156 10.4067 17.4311 10.4602 17.3435 10.5083H17.2254C17.1378 10.4602 17.0533 10.4067 16.9723 10.3481C14.0775 8.40144 10.2922 8.40144 7.39733 10.3481C7.31637 10.4067 7.23185 10.4602 7.14425 10.5083H7.02614C6.93854 10.4602 6.85402 10.4067 6.77306 10.3481C5.37024 9.37384 3.69751 8.86346 1.98977 8.88861H0.977438ZM20.5577 14.1781C21.0774 13.7734 21.7215 13.5617 22.3799 13.5792H23.7381V10.8712H22.3799C21.2202 10.8571 20.0869 11.2181 19.1489 11.9004C18.0654 12.6992 16.588 12.6992 15.5045 11.9004C13.5347 10.5291 10.9194 10.5291 8.94961 11.9004C7.86612 12.6992 6.3887 12.6992 5.30521 11.9004C4.35563 11.2094 3.20613 10.848 2.03199 10.8712H0.631592V13.5792H1.98981C2.64826 13.5617 3.29234 13.7734 3.81201 14.1781C5.77842 15.5504 8.39203 15.5504 10.3584 14.1781C10.8788 13.7747 11.5224 13.5631 12.1806 13.5792C12.8393 13.5603 13.4839 13.7722 14.0029 14.1781C15.9727 15.5494 18.5879 15.5494 20.5577 14.1781ZM22.3799 18.4214C21.7215 18.4039 21.0774 18.6156 20.5577 19.0203C18.5879 20.3916 15.9727 20.3916 14.0029 19.0203C13.4839 18.6144 12.8393 18.4025 12.1806 18.4214C11.5224 18.4053 10.8788 18.6169 10.3584 19.0203C8.39203 20.3926 5.77842 20.3926 3.81201 19.0203C3.29234 18.6156 2.64826 18.4039 1.98981 18.4214H0.631592V15.7134H2.03199C3.20613 15.6902 4.35563 16.0516 5.30521 16.7426C6.3887 17.5414 7.86612 17.5414 8.94961 16.7426C10.9194 15.3713 13.5347 15.3713 15.5045 16.7426C16.588 17.5414 18.0654 17.5414 19.1489 16.7426C20.0869 16.0603 21.2202 15.6993 22.3799 15.7134H23.7381V18.4214H22.3799Z" fill="white"/>
</svg>
