<svg width="105" height="25" viewBox="0 0 105 25" fill="none" xmlns="http://www.w3.org/2000/svg">
<path d="M22.7028 8.47559C23.0065 8.47559 23.1077 8.58526 23.1077 8.88052V15.5619H26.5412C26.8365 15.5619 26.9461 15.6716 26.9461 15.9669V16.5574C26.9461 16.8527 26.8365 16.9623 26.5412 16.9623H22.0194C21.7242 16.9623 21.6061 16.8527 21.6061 16.5574V8.88052C21.6061 8.58526 21.7242 8.47559 22.0194 8.47559H22.7028Z" fill="white"/>
<path fill-rule="evenodd" clip-rule="evenodd" d="M33.3155 8.29883C31.1727 8.29883 29.941 9.47145 29.941 11.4202V14.0185C29.941 15.9673 31.1812 17.1399 33.3155 17.1399C35.4498 17.1399 36.6899 15.9673 36.6899 14.0185V11.4202C36.6899 9.47145 35.4583 8.29883 33.3155 8.29883ZM33.3577 9.73321C34.5894 9.73321 35.2727 10.3237 35.2727 11.4204V14.0356C35.2727 15.1155 34.5894 15.7229 33.3577 15.7229C32.126 15.7229 31.4511 15.1408 31.4511 14.0356V11.4204C31.4511 10.3322 32.126 9.73321 33.3577 9.73321Z" fill="white"/>
<path d="M46.7374 12.3145C47.0664 12.3145 47.1423 12.4241 47.1423 12.7194V14.3223C47.1604 15.087 46.8317 15.8188 46.2481 16.3132C45.5324 16.8831 44.6301 17.1658 43.7172 17.1062C41.5323 17.1062 40.3428 15.9336 40.3428 13.9848V11.3696C40.3428 9.44619 41.5744 8.26514 43.7172 8.26514C45.4044 8.26514 46.5011 8.93159 46.9651 10.2645C47.0178 10.366 47.0194 10.4865 46.9696 10.5894C46.9198 10.6924 46.8243 10.7658 46.712 10.7875L46.054 11.0153C45.7672 11.1165 45.6491 11.0575 45.5479 10.7622C45.2604 10.0209 44.5065 9.56928 43.7172 9.66553C42.4771 9.66553 41.8022 10.2645 41.8022 11.3528V14.0354C41.8022 15.1406 42.4855 15.7227 43.7172 15.7227C44.9489 15.7227 45.7081 15.1575 45.7081 14.3307V13.7064H43.8775C43.5738 13.7064 43.4641 13.5883 43.4641 13.2931V12.7194C43.4641 12.4241 43.5738 12.3145 43.8775 12.3145H46.7374Z" fill="white"/>
<path fill-rule="evenodd" clip-rule="evenodd" d="M54.0008 8.29883C51.858 8.29883 50.6263 9.47145 50.6263 11.4202V14.0185C50.6263 15.9673 51.8665 17.1399 54.0008 17.1399C56.1351 17.1399 57.3752 15.9673 57.3752 14.0185V11.4202C57.3752 9.47145 56.1436 8.29883 54.0008 8.29883ZM54.043 9.73321C55.2662 9.73321 55.9495 10.3237 55.9495 11.4204V14.0356C55.9495 15.1155 55.2746 15.7229 54.043 15.7229C52.8113 15.7229 52.128 15.1408 52.128 14.0356V11.4204C52.128 10.3322 52.8197 9.73321 54.043 9.73321Z" fill="white"/>
<path d="M61.3486 8.72023C61.3486 8.53464 61.4077 8.47559 61.5933 8.47559H61.9813C62.1669 8.47559 62.2091 8.53464 62.2091 8.72023V16.7177C62.2091 16.9033 62.2091 16.9623 61.9813 16.9623H61.5933C61.4077 16.9623 61.3486 16.9033 61.3486 16.7177V8.72023Z" fill="white"/>
<path fill-rule="evenodd" clip-rule="evenodd" d="M72.5434 11.1245C72.5434 9.66156 71.3575 8.47559 69.8945 8.47559H66.7478C66.5707 8.47559 66.5032 8.53464 66.5032 8.72023V16.7177C66.5032 16.9033 66.5707 16.9623 66.7478 16.9623H67.1443C67.3215 16.9623 67.3637 16.9033 67.3637 16.7177V13.7735H69.8945C71.3575 13.7735 72.5434 12.5875 72.5434 11.1245ZM71.4112 12.0188C71.0827 12.5878 70.4756 12.9383 69.8186 12.9383H67.2877V9.26016H69.8186C70.4756 9.26016 71.0827 9.61068 71.4112 10.1797C71.7398 10.7487 71.7398 11.4498 71.4112 12.0188Z" fill="white"/>
<path d="M79.1321 8.30755C80.4696 8.15994 81.7454 8.90761 82.2703 10.1466C82.3378 10.2816 82.2703 10.3913 82.1353 10.4588L81.7642 10.6275C81.6123 10.6865 81.5533 10.6781 81.4605 10.5178C81.0683 9.59893 80.1266 9.03941 79.1321 9.13429C77.7064 9.13429 76.9303 9.69951 76.9303 10.7118C76.9132 11.3516 77.3704 11.906 78.0016 12.011C78.4554 12.159 78.9258 12.2497 79.402 12.281C79.9785 12.3117 80.5472 12.4283 81.0893 12.6268C81.9458 12.8979 82.4951 13.7323 82.4053 14.6262C82.4053 16.2038 81.258 17.157 79.149 17.157C77.7235 17.3201 76.3776 16.4662 75.9179 15.1071C75.8878 15.0462 75.8864 14.975 75.9141 14.913C75.9419 14.851 75.9959 14.8046 76.0613 14.7865L76.4325 14.6515C76.4916 14.6274 76.5582 14.6291 76.6159 14.6564C76.6737 14.6837 76.7173 14.7339 76.7362 14.7949C77.1235 15.7729 78.0997 16.3873 79.149 16.3134C80.7434 16.3134 81.5279 15.7566 81.5279 14.6262C81.5586 14.0126 81.1412 13.4667 80.5409 13.3355C80.1044 13.2053 79.6543 13.126 79.1996 13.0993L78.2885 12.9812C78.0033 12.9206 77.7217 12.8446 77.4449 12.7534C77.1714 12.6708 76.9165 12.5362 76.694 12.3569C76.241 11.9466 75.9938 11.3562 76.0192 10.7456C76.0782 9.26927 77.1833 8.30755 79.1321 8.30755Z" fill="white"/>
<path d="M86.9523 14.0772C87.0267 15.3156 88.0527 16.2818 89.2933 16.2818C90.534 16.2818 91.56 15.3156 91.6343 14.0772V8.72023C91.6343 8.53464 91.6934 8.47559 91.879 8.47559H92.2671C92.4526 8.47559 92.5117 8.53464 92.5117 8.72023V14.0687C92.5117 15.9837 91.3813 17.1395 89.2975 17.1395C87.2138 17.1395 86.0834 15.9837 86.0834 14.0687V8.72023C86.0834 8.53464 86.1424 8.47559 86.3196 8.47559H86.7161C86.8932 8.47559 86.9523 8.53464 86.9523 8.72023V14.0772Z" fill="white"/>
<path d="M104.154 8.47607C104.339 8.47607 104.398 8.53513 104.398 8.72072V16.7182C104.398 16.9038 104.339 16.9628 104.154 16.9628H103.799C103.622 16.9628 103.563 16.9038 103.563 16.7182V11.8505C103.563 11.1423 103.611 10.4348 103.706 9.73306H103.656C103.392 10.3748 103.085 10.9977 102.736 11.5974L100.923 14.7947C100.877 14.9083 100.766 14.9821 100.644 14.9803H100.408C100.284 14.9809 100.171 14.9081 100.121 14.7947L98.282 11.5637C97.9554 10.9725 97.6734 10.3578 97.4384 9.72462H97.3878C97.4742 10.4328 97.5193 11.1455 97.5228 11.859V16.7182C97.5228 16.9038 97.4637 16.9628 97.2781 16.9628H96.9491C96.7635 16.9628 96.7045 16.9038 96.7045 16.7182V8.72072C96.7045 8.53513 96.7635 8.47607 96.9491 8.47607H97.2528C97.395 8.46282 97.5302 8.54053 97.5903 8.6701L100.543 13.9174L103.479 8.72072C103.571 8.54356 103.622 8.51825 103.808 8.51825L104.154 8.47607Z" fill="white"/>
<path fill-rule="evenodd" clip-rule="evenodd" d="M2.10179 0.866591V18.0004C2.10179 18.2107 2.01824 18.4124 1.86952 18.5611C1.72081 18.7098 1.51911 18.7934 1.30879 18.7934H1.1232C0.685237 18.7934 0.3302 18.4383 0.3302 18.0004V0.866591C0.334825 0.43193 0.68851 0.0820067 1.1232 0.0820313H1.30879C1.74348 0.0820067 2.09716 0.43193 2.10179 0.866591ZM11.8289 11.728C11.9964 11.5685 12.222 11.4848 12.4529 11.4963L12.4107 11.5132C12.6562 11.4881 12.9004 11.5718 13.0789 11.7422C13.2574 11.9126 13.3523 12.1526 13.3387 12.399V17.0389C13.3387 17.5281 12.9421 17.9246 12.4529 17.9246C11.9637 17.9246 11.5671 17.5281 11.5671 17.0389V12.3399C11.5668 12.1087 11.6615 11.8875 11.8289 11.728ZM14.3595 14.1705C14.3595 13.7046 14.7372 13.3269 15.2031 13.3269C15.4472 13.3044 15.689 13.3893 15.8655 13.5594C16.0421 13.7294 16.1359 13.9679 16.1226 14.2126V15.2334C16.1226 15.7203 15.7279 16.115 15.241 16.115C14.7542 16.115 14.3595 15.7203 14.3595 15.2334V14.1705ZM7.69491 21.1893V15.09C7.43111 15.2905 7.10661 15.3947 6.77537 15.3853C6.47153 15.3777 6.17722 15.2777 5.93176 15.0984V21.1893C5.93176 21.6762 6.32646 22.0709 6.81334 22.0709C7.30022 22.0709 7.69491 21.6762 7.69491 21.1893ZM4.01676 17.4015C3.71321 17.3924 3.41935 17.2925 3.17315 17.1146V23.2308C3.17315 23.72 3.56974 24.1166 4.05895 24.1166C4.54816 24.1166 4.94474 23.72 4.94474 23.2308V17.1568C4.66926 17.3349 4.34422 17.4206 4.01676 17.4015ZM9.65209 13.3014C9.33434 13.2992 9.025 13.1991 8.76629 13.0146V19.1476C8.76629 19.6368 9.16288 20.0334 9.65209 20.0334C10.1413 20.0334 10.5379 19.6368 10.5379 19.1476V13.023C10.2702 13.2224 9.94353 13.3263 9.6099 13.3183L9.65209 13.3014ZM4.10957 16.7515H3.92398C3.48602 16.7515 3.13098 16.3965 3.13098 15.9586V2.90787C3.13561 2.4732 3.48929 2.12328 3.92398 2.12331H4.10957C4.54426 2.12328 4.89794 2.4732 4.90257 2.90787V15.9754C4.90257 16.4134 4.54753 16.7684 4.10957 16.7684V16.7515ZM6.70789 14.7443H6.90192C7.33522 14.7443 7.68648 14.3931 7.68648 13.9598V4.93312C7.6865 4.49843 7.33658 4.14474 6.90192 4.14012H6.70789C6.49834 4.14011 6.29749 4.22392 6.15012 4.37289C6.00274 4.52185 5.92107 4.72358 5.92333 4.93312V13.9598C5.92333 14.3931 6.27459 14.7443 6.70789 14.7443ZM9.69428 12.6771H9.51712C9.08243 12.6771 8.72875 12.3272 8.72412 11.8925V7.03331C8.71012 6.81438 8.78744 6.59942 8.9377 6.43957C9.08797 6.27971 9.29773 6.18925 9.51712 6.1897H9.70271C10.1407 6.1897 10.4957 6.54474 10.4957 6.9827V11.8757C10.498 12.0874 10.4154 12.2913 10.2665 12.4418C10.1175 12.5924 9.9145 12.6771 9.70271 12.6771H9.69428ZM12.3095 10.8634H12.4951H12.5035C12.9382 10.8587 13.2881 10.5051 13.2881 10.0704V8.81339C13.2834 8.37873 12.9298 8.02881 12.4951 8.02883H12.3095C11.8748 8.02881 11.5211 8.37873 11.5165 8.81339V10.0704C11.5165 10.5083 11.8715 10.8634 12.3095 10.8634Z" fill="white"/>
</svg>
