<svg width="102" height="24" viewBox="0 0 102 24" fill="none" xmlns="http://www.w3.org/2000/svg">
<path fill-rule="evenodd" clip-rule="evenodd" d="M60.7211 6.51159C60.2431 6.72339 59.9402 7.20255 59.9537 7.72513V7.742C59.9506 8.08528 60.0908 8.4143 60.3407 8.64973C60.5905 8.88516 60.9273 9.00564 61.2698 8.98211C61.7924 8.97168 62.2572 8.64703 62.4468 8.15989C62.6365 7.67275 62.5135 7.11932 62.1355 6.75825C61.7575 6.39719 61.199 6.2998 60.7211 6.51159ZM32.4772 7.09223H29.9464V17.3252H32.4772V7.09223ZM37.4292 9.42056C35.0334 9.42056 33.4811 10.9306 33.4811 13.4615C33.4811 16.0345 34.9996 17.5108 37.4292 17.5108C39.8589 17.5108 41.3774 15.9923 41.3774 13.4615C41.3774 10.9306 39.8251 9.42056 37.4292 9.42056ZM38.8381 13.4617C38.8381 12.0697 38.2897 11.2514 37.4293 11.2514C36.5688 11.2514 36.0289 12.095 36.0289 13.4617C36.0289 14.8283 36.5603 15.655 37.4293 15.655C38.2982 15.655 38.8381 14.8789 38.8381 13.4701V13.4617ZM44.7603 17.8233H42.3307V17.8318C42.4741 19.2322 43.866 20.2361 46.1016 20.2361C48.5059 20.2361 50.1341 19.0887 50.1341 17.2412V9.56435H47.6032V10.9732C47.2131 10.0408 46.2848 9.44884 45.2749 9.48843C43.3346 9.48843 42.1704 11.0154 42.1704 13.4365C42.1704 15.8577 43.3936 17.2665 45.2411 17.2665C46.2195 17.3197 47.1316 16.7717 47.5442 15.883H47.5948V17.3003C47.5948 18.0595 47.0886 18.5826 46.1269 18.5826C45.5536 18.6597 44.9977 18.3509 44.7603 17.8233ZM47.6032 13.453C47.6032 12.2213 47.038 11.4452 46.1438 11.4452C45.2495 11.4452 44.7012 12.2129 44.7012 13.453C44.7012 14.6931 45.2411 15.3933 46.1438 15.3933C47.0464 15.3933 47.6032 14.71 47.6032 13.4615V13.453ZM55.0354 9.41225C52.6396 9.41225 51.0873 10.9223 51.0873 13.4532V13.4616C51.0873 16.0346 52.5974 17.5025 55.0354 17.5025C57.4735 17.5025 58.992 15.984 58.992 13.4532C58.992 10.9223 57.4313 9.41225 55.0354 9.41225ZM56.4443 13.4533C56.4443 12.0614 55.8959 11.2431 55.0355 11.2431C54.175 11.2431 53.6772 12.0951 53.6772 13.4702C53.6772 14.8453 54.2087 15.6636 55.0692 15.6636C55.9297 15.6636 56.4443 14.879 56.4443 13.4702V13.4533ZM59.9537 9.58117H62.4846V17.3255H59.9537V9.58117ZM68.6261 17.4265C70.5495 17.4265 71.6715 15.9839 71.6715 13.4531L71.7052 13.47C71.7052 10.9391 70.5495 9.48811 68.6092 9.45437C67.5911 9.40892 66.6535 10.0059 66.2639 10.9476H66.2133V9.56404H63.6825V19.8055H66.2133V15.9924H66.2639C66.6725 16.9186 67.6158 17.4914 68.6261 17.4265ZM69.1406 13.4531C69.1406 12.2215 68.5754 11.4369 67.6896 11.4369C66.8038 11.4369 66.2386 12.2299 66.2302 13.4531C66.2217 14.6764 66.8038 15.4609 67.6896 15.4609C68.5754 15.4609 69.1406 14.6933 69.1406 13.47V13.4531ZM79.4496 11.9938C79.3905 10.3994 78.1167 9.40395 76.0161 9.40395V9.42082C73.9239 9.42082 72.5657 10.4078 72.5488 11.9263C72.5488 13.1074 73.3418 13.9088 74.8519 14.221L76.3114 14.5331C76.9188 14.6597 77.155 14.744 77.155 15.1489C77.155 15.5539 76.8175 15.7985 76.0751 15.7985C75.3328 15.7985 74.8772 15.4611 74.8013 14.8874H72.3633C72.4729 16.465 73.8818 17.4942 76.033 17.4942C78.1842 17.4942 79.6436 16.465 79.6436 14.8621C79.6436 13.6895 78.9856 13.0652 77.4418 12.7362L75.8221 12.4072C75.2568 12.2891 74.9785 12.1626 74.9785 11.7661C74.9785 11.3696 75.2906 11.0996 75.9908 11.0996C76.691 11.0996 77.1465 11.4455 77.1465 11.9938H79.4496ZM88.0882 17.3085H85.6501V15.8659H85.5995C85.3234 16.8638 84.3893 17.5345 83.3555 17.4772C82.5775 17.5214 81.8186 17.2262 81.2749 16.668C80.7312 16.1098 80.4562 15.3433 80.521 14.5667V9.56409H83.0518V13.9846C83.0518 14.9042 83.5242 15.3935 84.3088 15.3935C84.681 15.3942 85.0354 15.2343 85.2811 14.9547C85.5267 14.6751 85.6397 14.303 85.5911 13.934V9.56409H88.1219L88.0882 17.3085ZM91.7579 9.56403H89.3114L89.2693 17.3253H91.8001V12.7613C91.7615 12.4404 91.8621 12.1183 92.0766 11.8764C92.2911 11.6345 92.5988 11.496 92.9221 11.4959C93.6139 11.4959 93.9935 11.9177 93.9935 12.6938V17.3253H96.3978V12.7445C96.3563 12.4274 96.4541 12.1079 96.666 11.8685C96.878 11.6291 97.1832 11.4932 97.5029 11.4959C98.2115 11.4959 98.5912 11.884 98.5912 12.7276V17.3253H101.122V12.0527C101.173 11.3581 100.926 10.6747 100.443 10.1726C99.9605 9.6706 99.2872 9.39723 98.5912 9.42062C97.506 9.37399 96.527 10.0683 96.2122 11.1078H96.1616C95.9935 10.0709 95.0575 9.33676 94.0104 9.42062C92.9896 9.40175 92.0847 10.0743 91.8085 11.0572H91.7579V9.56403Z" fill="white"/>
<path fill-rule="evenodd" clip-rule="evenodd" d="M21.1813 4.83968C21.871 5.65961 22.4392 6.57445 22.8685 7.55611C23.4938 8.98739 23.8156 10.5328 23.8133 12.0947C23.8087 18.3994 18.7039 23.5117 12.3993 23.5257C10.9323 23.5249 9.47954 23.2383 8.12213 22.6821C7.15396 22.2974 6.2451 21.7776 5.42257 21.1383C1.9241 18.4721 0.268964 14.0329 1.168 9.72709C2.06703 5.42132 5.36023 2.0153 9.63328 0.971779C13.9063 -0.0717376 18.3988 1.43297 21.1813 4.83968ZM16.2039 3.8191C15.0096 3.26328 13.7082 2.97535 12.3908 2.97549L12.3992 2.95862C9.27538 2.95629 6.36811 4.55454 4.69619 7.19334C3.02427 9.83213 2.82083 13.1435 4.15715 15.9671C4.5382 15.5668 4.77302 15.0496 4.8236 14.4992C5.13043 12.3796 6.79547 10.7145 8.91512 10.4077C10.111 10.2993 11.0661 9.36534 11.2013 8.17214C11.5081 6.05249 13.1732 4.38745 15.2928 4.08062C15.6065 4.03283 15.9127 3.94494 16.2039 3.8191ZM5.41414 18.0003C5.44789 17.9694 5.48163 17.9394 5.51538 17.9094C5.58287 17.8494 5.65035 17.7894 5.71784 17.7219C6.46836 16.9943 6.95012 16.0338 7.08449 14.9971C7.13898 14.4143 7.39916 13.87 7.81844 13.4617C8.22189 13.0417 8.76494 12.7837 9.34538 12.7362C11.465 12.4294 13.1301 10.7643 13.4369 8.64467C13.4734 8.03517 13.735 7.46094 14.1708 7.03337C14.5843 6.62156 15.1325 6.37291 15.7147 6.33317C16.6628 6.20272 17.5471 5.78121 18.2455 5.1268C19.0407 5.78657 19.7145 6.58026 20.2364 7.47205C20.2044 7.51537 20.1676 7.55498 20.1267 7.59015C19.7241 8.01381 19.1817 8.2775 18.5998 8.33253C16.4775 8.63407 14.8098 10.3018 14.5083 12.4241C14.3857 13.6214 13.4368 14.5668 12.239 14.6849C10.1134 14.9894 8.43968 16.6528 8.12214 18.7765C8.07674 19.1888 7.93514 19.5846 7.70877 19.9322C6.84322 19.4183 6.06801 18.7657 5.41414 18.0003ZM9.85999 20.9022C10.6829 21.1382 11.5348 21.2575 12.3908 21.2565V21.2143C15.2162 21.2034 17.8771 19.8847 19.5971 17.6431C21.317 15.4016 21.902 12.49 21.1813 9.75809C20.5408 10.2109 19.7994 10.5005 19.0216 10.6017C17.8271 10.7236 16.8826 11.6681 16.7607 12.8626C16.453 14.9849 14.7837 16.6507 12.6608 16.9541C11.4662 17.076 10.5218 18.0205 10.3999 19.215C10.3245 19.8056 10.1415 20.3775 9.85999 20.9022Z" fill="white"/>
</svg>
